HIERARCHY
ROOT Hips
{
	OFFSET 0.000000 8.830580 0.000000
	CHANNELS 6 Xposition Yposition Zposition Zrotation Yrotation Xrotation 
	JOINT Spine
	{
		OFFSET 0.000000 0.010000 0.000000
		CHANNELS 3 Zrotation Yrotation Xrotation
		JOINT Spine1
		{
			OFFSET 0.000000 2.459130 0.000000
			CHANNELS 3 Zrotation Yrotation Xrotation
			JOINT Neck
			{
				OFFSET 0.000000 2.484630 0.000000
				CHANNELS 3 Zrotation Yrotation Xrotation
				JOINT Head_virtual
				{
					OFFSET 0.000000 0.000000 0.000000
					CHANNELS 3 Zrotation Yrotation Xrotation
					JOINT Head
					{
						OFFSET 0.000000 0.927525 0.000000
						CHANNELS 3 Zrotation Yrotation Xrotation
						End Site
						{
							OFFSET 0.000000 0.000000 0.000000
						}
					}
				}
				JOINT LeftUpArm_virtual
				{
					OFFSET 0.000000 0.000000 0.000000
					CHANNELS 3 Zrotation Yrotation Xrotation
					JOINT LeftUpArm
					{
						OFFSET 1.248820 0.000000 0.000000
						CHANNELS 3 Zrotation Yrotation Xrotation
						JOINT LeftForeArm
						{
							OFFSET 2.597580 0.000000 0.000000
							CHANNELS 3 Zrotation Yrotation Xrotation
							JOINT LeftHand
							{
								OFFSET 2.455420 0.000000 0.000000
								CHANNELS 3 Zrotation Yrotation Xrotation
								End Site
								{
									OFFSET 0.000000 0.000000 0.000000
								}
							}
						}
					}
				}
				JOINT RightUpArm_virtual
				{
					OFFSET -0.000000 -0.000000 -0.000000
					CHANNELS 3 Zrotation Yrotation Xrotation
					JOINT RightUpArm
					{
						OFFSET -1.248820 -0.000000 -0.000000
						CHANNELS 3 Zrotation Yrotation Xrotation
						JOINT RightForeArm
						{
							OFFSET -2.597580 -0.000000 -0.000000
							CHANNELS 3 Zrotation Yrotation Xrotation
							JOINT RightHand
							{
								OFFSET -2.455420 -0.000000 -0.000000
								CHANNELS 3 Zrotation Yrotation Xrotation
								End Site
								{
									OFFSET 0.000000 0.000000 0.000000
								}
							}
						}
					}
				}
			}
		}
	}
	JOINT LeftUpLeg
	{
		OFFSET 1.271939 0.000000 0.000000
		CHANNELS 3 Zrotation Yrotation Xrotation
		JOINT LeftLowLeg
		{
			OFFSET 0.000000 -4.342910 0.000000
			CHANNELS 3 Zrotation Yrotation Xrotation
			JOINT LeftFoot
			{
				OFFSET 0.000000 -4.487670 0.000000
				CHANNELS 3 Zrotation Yrotation Xrotation
				JOINT LeftToeBase
				{
					OFFSET 0.000000 0.000000 1.515070
					CHANNELS 3 Zrotation Yrotation Xrotation
					End Site
					{
						OFFSET 0.000000 0.000000 0.000000
					}
				}
			}
		}
	}
	JOINT RightUpLeg
	{
		OFFSET -1.271939 0.000000 0.000000
		CHANNELS 3 Zrotation Yrotation Xrotation
		JOINT RightLowLeg
		{
			OFFSET 0.000000 -4.342910 0.000000
			CHANNELS 3 Zrotation Yrotation Xrotation
			JOINT RightFoot
			{
				OFFSET 0.000000 -4.487670 0.000000
				CHANNELS 3 Zrotation Yrotation Xrotation
				JOINT RightToeBase
				{
					OFFSET 0.000000 0.000000 1.515070
					CHANNELS 3 Zrotation Yrotation Xrotation
					End Site
					{
						OFFSET 0.000000 0.000000 0.000000
					}
				}
			}
		}
	}
}
MOTION
Frames: 13
Frame Time: 0.041667
-18.763972 9.229991 40.747102 -168.209638 1.203035 -172.753850 -5.641191 2.751531 -5.404880 -6.889349 4.153600 5.196306 0.000000 0.000000 0.000000 27.944815 -19.495040 -11.459725 24.662115 -10.190013 -62.687820 -15.552800 8.162520 4.540900 -37.082401 -9.786470 3.219710 0.000000 -31.330799 0.000000 16.743601 11.172700 1.003370 8.464050 -4.280890 -11.019700 8.257560 16.034000 -60.253601 0.000000 34.435200 0.000000 5.505400 -6.669970 -64.557602 10.598546 -3.189544 -15.710364 0.000000 0.000000 27.611700 10.585830 3.591590 -0.427340 0.000000 0.000000 -36.871500 3.119987 -3.222808 -8.807399 0.000000 0.000000 18.183500 15.651828 5.312935 17.889869 0.000000 0.000000 -34.039499 
-18.794093 9.225822 40.732735 -168.169294 1.495102 -172.813211 -5.737133 2.729036 -5.728158 -6.981452 4.187034 5.783609 0.000000 0.000000 0.000000 28.001776 -19.466457 -11.288621 24.729814 -10.216063 -62.654251 -15.505800 8.124540 4.329470 -37.124500 -9.901250 3.796040 0.000000 -29.739799 0.000000 16.042000 11.176200 0.885201 8.316360 -4.034790 -10.838600 8.447800 15.979000 -60.633701 0.000000 34.513401 0.000000 5.617600 -6.612080 -64.628998 10.401493 -3.015746 -15.529447 0.000000 0.000000 27.737301 10.803828 3.772978 -0.578554 0.000000 0.000000 -36.941500 2.954841 -2.610659 -8.662430 0.000000 0.000000 18.100000 15.786409 4.961794 17.787933 0.000000 0.000000 -33.958099 
-18.823483 9.222552 40.720962 -168.115660 1.821970 -172.824250 -5.890961 2.813454 -5.800576 -6.853296 4.297268 5.787335 0.000000 0.000000 0.000000 27.930512 -19.518459 -10.955770 24.794367 -10.436441 -62.719091 -15.623000 7.994890 4.395530 -37.118401 -9.985880 4.259980 0.000000 -28.282499 0.000000 15.299400 11.247400 0.100745 7.637560 -4.238250 -13.370500 10.255600 15.657400 -58.144600 0.000000 34.781300 0.000000 5.726160 -6.519740 -64.082100 10.196627 -2.661499 -15.366184 0.000000 0.000000 27.794500 11.048048 3.933790 -0.720798 0.000000 0.000000 -36.992399 2.831314 -1.939992 -8.562065 0.000000 0.000000 18.011499 15.718977 4.574140 17.791592 0.000000 0.000000 -33.816700 
-18.854266 9.221249 40.713028 -168.048669 2.182476 -172.807411 -5.800967 2.904764 -5.841411 -7.133575 4.363408 5.707136 0.000000 0.000000 0.000000 27.855477 -19.433620 -10.548518 24.841645 -10.569021 -62.658078 -15.545200 8.009410 4.278240 -37.249401 -10.023300 4.644170 0.000000 -26.907301 0.000000 14.729900 11.261400 -0.690967 6.839660 -4.223970 -14.656400 12.079400 15.214100 -56.862499 0.000000 34.967400 0.000000 5.661300 -6.501150 -63.778400 10.010578 -2.315537 -15.239345 0.000000 0.000000 27.843201 11.241618 4.045924 -0.813227 0.000000 0.000000 -37.008400 2.708315 -1.398563 -8.508403 0.000000 0.000000 17.843100 15.828436 4.221132 17.843814 0.000000 0.000000 -33.806400 
-18.883214 9.220362 40.699598 -167.957398 2.407497 -172.862595 -5.744794 2.990284 -5.894514 -7.243204 4.434983 5.671267 0.000000 0.000000 0.000000 27.846378 -19.425423 -10.156175 24.840404 -10.732917 -62.614449 -15.457000 7.895530 4.264810 -37.522701 -9.974660 4.799900 0.000000 -25.797701 0.000000 14.256700 11.537500 -1.427560 7.494290 -4.086050 -13.152500 10.672000 15.581700 -58.246799 0.000000 34.292500 0.000000 5.686790 -6.543190 -63.594200 9.886093 -2.291297 -15.133389 0.000000 0.000000 28.058500 11.421287 4.302795 -0.870454 0.000000 0.000000 -37.015699 2.639466 -1.198170 -8.267920 0.000000 0.000000 17.550400 15.790589 3.996091 17.989015 0.000000 0.000000 -33.747299 
-18.912969 9.218672 40.690927 -167.815607 2.556999 -172.804823 -5.721828 3.004900 -5.992620 -7.038451 4.441897 5.598359 0.000000 0.000000 0.000000 27.586319 -19.386576 -9.875645 24.849720 -10.970264 -62.608665 -15.621900 7.928390 4.386030 -37.714500 -10.126300 4.873330 0.000000 -24.880199 0.000000 13.771900 11.881600 -1.957780 7.962470 -4.405840 -11.970600 9.488540 16.581800 -59.475399 0.000000 33.511600 0.000000 5.388720 -6.866350 -63.380299 9.820715 -2.269453 -15.248050 0.000000 0.000000 28.380501 11.579261 4.517935 -0.955068 0.000000 0.000000 -37.018499 2.598274 -1.107705 -8.173718 0.000000 0.000000 17.273899 15.828641 3.925372 18.237865 0.000000 0.000000 -33.760900 
-18.941539 9.218117 40.680208 -167.761604 2.624434 -172.830610 -5.614868 3.010155 -6.027818 -7.183925 4.425683 5.580011 0.000000 0.000000 0.000000 27.608624 -19.352083 -9.604168 24.756605 -10.974759 -62.605032 -15.504300 8.006690 4.255780 -38.098801 -10.109500 4.974830 0.000000 -24.232800 0.000000 13.372300 12.106400 -2.893070 8.436210 -4.326740 -10.062500 8.256910 16.967501 -61.487801 0.000000 32.941502 0.000000 5.430130 -7.057860 -63.282700 9.686255 -2.236109 -15.152114 0.000000 0.000000 28.415600 11.721757 4.554965 -1.002768 0.000000 0.000000 -36.978901 2.473719 -1.142012 -7.971034 0.000000 0.000000 16.997400 15.918889 3.945087 18.470663 0.000000 0.000000 -33.768400 
-18.967895 9.217464 40.672093 -167.726017 2.705368 -172.830077 -5.612661 3.038084 -6.050345 -7.121012 4.450510 5.537178 0.000000 0.000000 0.000000 27.573269 -19.346933 -9.477375 24.738570 -11.038016 -62.596303 -15.482100 8.013490 4.241230 -38.443802 -10.055500 4.981370 0.000000 -23.903900 0.000000 13.128300 12.229400 -2.390110 8.734130 -4.330540 -9.371340 7.569360 17.141899 -62.551601 0.000000 32.565800 0.000000 5.558440 -7.144460 -63.314999 9.528242 -2.014263 -15.040312 0.000000 0.000000 28.330299 11.881170 4.526254 -1.063417 0.000000 0.000000 -37.071501 2.333723 -1.044593 -7.821518 0.000000 0.000000 16.730801 16.070305 3.915173 18.670527 0.000000 0.000000 -33.733400 
-18.994180 9.217145 40.665309 -167.707284 2.801535 -172.832540 -5.608608 3.040523 -6.087051 -7.042388 4.452099 5.524411 0.000000 0.000000 0.000000 27.506110 -19.317248 -9.358484 24.659325 -11.078639 -62.569894 -15.561700 8.050080 4.262100 -38.699200 -9.978410 4.784080 0.000000 -23.782400 0.000000 12.740600 12.174000 -3.430760 8.440100 -4.372400 -9.895030 8.245850 17.135700 -62.428001 0.000000 32.629299 0.000000 5.798990 -7.200720 -62.518101 9.356126 -1.863672 -14.905768 0.000000 0.000000 28.196899 12.074081 4.561120 -1.068985 0.000000 0.000000 -37.084101 2.175427 -0.888859 -7.717974 0.000000 0.000000 16.538601 16.267464 3.859196 18.854731 0.000000 0.000000 -33.724001 
-19.017748 9.216932 40.658070 -167.647474 2.837060 -172.841636 -5.602843 3.029887 -6.110955 -6.905997 4.442123 5.523303 0.000000 0.000000 0.000000 27.433988 -19.274861 -9.291032 24.660759 -11.130492 -62.514273 -15.652000 8.095810 4.231610 -38.930801 -9.846870 4.672930 0.000000 -23.893400 0.000000 12.634500 12.124500 -3.771180 8.787940 -4.377110 -9.150060 7.461610 17.267401 -63.173901 0.000000 32.481400 0.000000 5.870300 -7.173490 -62.508202 9.251028 -1.819951 -14.849663 0.000000 0.000000 28.204300 12.250999 4.645522 -1.083962 0.000000 0.000000 -37.103001 2.098100 -0.831797 -7.574833 0.000000 0.000000 16.297800 16.350994 3.756744 19.078997 0.000000 0.000000 -33.742399 
-19.041841 9.216048 40.652113 -167.560479 2.810864 -172.858569 -5.531614 3.009636 -6.112012 -6.801114 4.409703 5.500343 0.000000 0.000000 0.000000 27.447493 -19.292469 -9.228756 24.591737 -11.184833 -62.448403 -15.702700 8.113580 4.273770 -39.177601 -9.724220 4.572500 0.000000 -24.128799 0.000000 12.691500 12.081500 -4.191510 9.245810 -4.345150 -8.594240 6.619820 17.334700 -63.717201 0.000000 32.378201 0.000000 5.939510 -7.007100 -62.720001 9.186162 -1.944969 -14.871365 0.000000 0.000000 28.329599 12.382029 4.800300 -1.092934 0.000000 0.000000 -37.133200 2.053164 -0.725490 -7.416438 0.000000 0.000000 16.040400 16.465962 3.556756 19.279870 0.000000 0.000000 -33.807301 
-19.064425 9.214667 40.647778 -167.502281 2.794922 -172.851515 -5.422781 3.000402 -6.127402 -6.721843 4.383558 5.502305 0.000000 0.000000 0.000000 27.127197 -19.152526 -9.134188 24.848457 -11.340519 -62.450675 -15.803100 8.118910 4.251430 -39.321400 -9.638000 4.595330 0.000000 -24.293100 0.000000 12.693600 12.023200 -4.945980 7.253510 -4.439340 -12.838000 11.054100 16.093100 -59.287800 0.000000 33.628502 0.000000 5.231360 -7.028740 -63.141899 9.105970 -2.118525 -14.905324 0.000000 0.000000 28.424500 12.495076 4.995757 -1.103694 0.000000 0.000000 -37.113100 1.994261 -0.447283 -7.329414 0.000000 0.000000 15.879100 16.558566 3.228790 19.322217 0.000000 0.000000 -33.699900 
-19.086301 9.214717 40.643000 -167.513199 2.774315 -172.859348 -5.448845 2.984034 -6.149019 -6.640187 4.373114 5.512037 0.000000 0.000000 0.000000 27.271536 -19.192974 -9.088753 24.824686 -11.306742 -62.434006 -15.863800 8.163310 4.201190 -39.473301 -9.608470 4.705320 0.000000 -24.524300 0.000000 12.796100 12.104400 -5.286650 9.139100 -4.337460 -8.530770 6.877350 17.111900 -63.528900 0.000000 33.080601 0.000000 3.948370 -8.308510 -64.478996 8.960289 -2.280609 -14.837522 0.000000 0.000000 28.331800 12.635980 5.149277 -1.032968 0.000000 0.000000 -37.085400 1.868961 -0.057619 -7.240814 0.000000 0.000000 15.751200 16.596129 2.847837 19.275624 0.000000 0.000000 -33.544100 
